<mxfile host="app.diagrams.net" modified="2022-04-26T03:02:31.634Z" agent="5.0 (Windows NT 6.1; Win64; x64) AppleWebKit/537.36 (KHTML, like Gecko) Chrome/100.0.4896.127 Safari/537.36" etag="dxgMTb0PuY6Fb-H5whKX" version="17.4.6" type="github">
  <diagram id="C5RBs43oDa-KdzZeNtuy" name="Page-1">
    <mxGraphModel dx="758" dy="820" grid="1" gridSize="10" guides="1" tooltips="1" connect="1" arrows="1" fold="1" page="1" pageScale="1" pageWidth="827" pageHeight="1169" math="0" shadow="0">
      <root>
        <mxCell id="WIyWlLk6GJQsqaUBKTNV-0" />
        <mxCell id="WIyWlLk6GJQsqaUBKTNV-1" parent="WIyWlLk6GJQsqaUBKTNV-0" />
        <mxCell id="6fjcl-n8C-YK8sSfS6Hp-2" style="edgeStyle=orthogonalEdgeStyle;rounded=0;orthogonalLoop=1;jettySize=auto;html=1;entryX=0.5;entryY=0;entryDx=0;entryDy=0;" edge="1" parent="WIyWlLk6GJQsqaUBKTNV-1" source="6fjcl-n8C-YK8sSfS6Hp-0" target="6fjcl-n8C-YK8sSfS6Hp-1">
          <mxGeometry relative="1" as="geometry" />
        </mxCell>
        <mxCell id="6fjcl-n8C-YK8sSfS6Hp-0" value="获取图片上传接口" style="rounded=0;whiteSpace=wrap;html=1;" vertex="1" parent="WIyWlLk6GJQsqaUBKTNV-1">
          <mxGeometry x="250" y="220" width="120" height="60" as="geometry" />
        </mxCell>
        <mxCell id="6fjcl-n8C-YK8sSfS6Hp-4" style="edgeStyle=orthogonalEdgeStyle;rounded=0;orthogonalLoop=1;jettySize=auto;html=1;entryX=0.5;entryY=0;entryDx=0;entryDy=0;" edge="1" parent="WIyWlLk6GJQsqaUBKTNV-1" source="6fjcl-n8C-YK8sSfS6Hp-1" target="6fjcl-n8C-YK8sSfS6Hp-3">
          <mxGeometry relative="1" as="geometry" />
        </mxCell>
        <mxCell id="6fjcl-n8C-YK8sSfS6Hp-1" value="下载图片" style="rounded=0;whiteSpace=wrap;html=1;" vertex="1" parent="WIyWlLk6GJQsqaUBKTNV-1">
          <mxGeometry x="250" y="320" width="120" height="60" as="geometry" />
        </mxCell>
        <mxCell id="6fjcl-n8C-YK8sSfS6Hp-6" style="edgeStyle=orthogonalEdgeStyle;rounded=0;orthogonalLoop=1;jettySize=auto;html=1;entryX=0.5;entryY=0;entryDx=0;entryDy=0;" edge="1" parent="WIyWlLk6GJQsqaUBKTNV-1" source="6fjcl-n8C-YK8sSfS6Hp-3" target="6fjcl-n8C-YK8sSfS6Hp-5">
          <mxGeometry relative="1" as="geometry">
            <mxPoint x="310" y="520" as="targetPoint" />
          </mxGeometry>
        </mxCell>
        <mxCell id="6fjcl-n8C-YK8sSfS6Hp-3" value="构造图片文件" style="rounded=0;whiteSpace=wrap;html=1;" vertex="1" parent="WIyWlLk6GJQsqaUBKTNV-1">
          <mxGeometry x="250" y="420" width="120" height="60" as="geometry" />
        </mxCell>
        <mxCell id="6fjcl-n8C-YK8sSfS6Hp-8" style="edgeStyle=orthogonalEdgeStyle;rounded=0;orthogonalLoop=1;jettySize=auto;html=1;entryX=0.5;entryY=0;entryDx=0;entryDy=0;" edge="1" parent="WIyWlLk6GJQsqaUBKTNV-1" source="6fjcl-n8C-YK8sSfS6Hp-5" target="6fjcl-n8C-YK8sSfS6Hp-7">
          <mxGeometry relative="1" as="geometry" />
        </mxCell>
        <mxCell id="6fjcl-n8C-YK8sSfS6Hp-5" value="图片文件编码" style="rounded=0;whiteSpace=wrap;html=1;" vertex="1" parent="WIyWlLk6GJQsqaUBKTNV-1">
          <mxGeometry x="250" y="524.5" width="120" height="60" as="geometry" />
        </mxCell>
        <mxCell id="6fjcl-n8C-YK8sSfS6Hp-10" style="edgeStyle=orthogonalEdgeStyle;rounded=0;orthogonalLoop=1;jettySize=auto;html=1;entryX=0.5;entryY=0;entryDx=0;entryDy=0;" edge="1" parent="WIyWlLk6GJQsqaUBKTNV-1" source="6fjcl-n8C-YK8sSfS6Hp-7" target="6fjcl-n8C-YK8sSfS6Hp-9">
          <mxGeometry relative="1" as="geometry" />
        </mxCell>
        <mxCell id="6fjcl-n8C-YK8sSfS6Hp-7" value="图片上传" style="rounded=0;whiteSpace=wrap;html=1;" vertex="1" parent="WIyWlLk6GJQsqaUBKTNV-1">
          <mxGeometry x="250" y="630" width="120" height="60" as="geometry" />
        </mxCell>
        <mxCell id="6fjcl-n8C-YK8sSfS6Hp-12" style="edgeStyle=orthogonalEdgeStyle;rounded=0;orthogonalLoop=1;jettySize=auto;html=1;entryX=0.5;entryY=0;entryDx=0;entryDy=0;" edge="1" parent="WIyWlLk6GJQsqaUBKTNV-1" source="6fjcl-n8C-YK8sSfS6Hp-9" target="6fjcl-n8C-YK8sSfS6Hp-11">
          <mxGeometry relative="1" as="geometry" />
        </mxCell>
        <mxCell id="6fjcl-n8C-YK8sSfS6Hp-9" value="返回图片新链接和上传状态标志" style="rounded=0;whiteSpace=wrap;html=1;" vertex="1" parent="WIyWlLk6GJQsqaUBKTNV-1">
          <mxGeometry x="250" y="730" width="120" height="60" as="geometry" />
        </mxCell>
        <mxCell id="6fjcl-n8C-YK8sSfS6Hp-14" style="edgeStyle=orthogonalEdgeStyle;rounded=0;orthogonalLoop=1;jettySize=auto;html=1;exitX=0.5;exitY=1;exitDx=0;exitDy=0;entryX=0.5;entryY=0;entryDx=0;entryDy=0;" edge="1" parent="WIyWlLk6GJQsqaUBKTNV-1" source="6fjcl-n8C-YK8sSfS6Hp-11" target="6fjcl-n8C-YK8sSfS6Hp-13">
          <mxGeometry relative="1" as="geometry" />
        </mxCell>
        <mxCell id="6fjcl-n8C-YK8sSfS6Hp-15" style="edgeStyle=orthogonalEdgeStyle;rounded=0;orthogonalLoop=1;jettySize=auto;html=1;entryX=1;entryY=0.5;entryDx=0;entryDy=0;" edge="1" parent="WIyWlLk6GJQsqaUBKTNV-1" source="6fjcl-n8C-YK8sSfS6Hp-11" target="6fjcl-n8C-YK8sSfS6Hp-0">
          <mxGeometry relative="1" as="geometry">
            <Array as="points">
              <mxPoint x="450" y="870" />
              <mxPoint x="450" y="250" />
            </Array>
          </mxGeometry>
        </mxCell>
        <mxCell id="6fjcl-n8C-YK8sSfS6Hp-11" value="上传状态标志是否为success" style="rhombus;whiteSpace=wrap;html=1;" vertex="1" parent="WIyWlLk6GJQsqaUBKTNV-1">
          <mxGeometry x="215" y="830" width="190" height="80" as="geometry" />
        </mxCell>
        <mxCell id="6fjcl-n8C-YK8sSfS6Hp-13" value="将图片源链接替换成图片新链接" style="rounded=0;whiteSpace=wrap;html=1;" vertex="1" parent="WIyWlLk6GJQsqaUBKTNV-1">
          <mxGeometry x="250" y="950" width="120" height="60" as="geometry" />
        </mxCell>
        <mxCell id="6fjcl-n8C-YK8sSfS6Hp-16" value="否" style="text;html=1;align=center;verticalAlign=middle;resizable=0;points=[];autosize=1;strokeColor=none;fillColor=none;" vertex="1" parent="WIyWlLk6GJQsqaUBKTNV-1">
          <mxGeometry x="405" y="850" width="30" height="20" as="geometry" />
        </mxCell>
        <mxCell id="6fjcl-n8C-YK8sSfS6Hp-17" value="是" style="text;html=1;align=center;verticalAlign=middle;resizable=0;points=[];autosize=1;strokeColor=none;fillColor=none;" vertex="1" parent="WIyWlLk6GJQsqaUBKTNV-1">
          <mxGeometry x="305" y="920" width="30" height="20" as="geometry" />
        </mxCell>
      </root>
    </mxGraphModel>
  </diagram>
</mxfile>
